{
    "asset" : {
        "generator" : "Khronos glTF Blender I/O v3.2.43",
        "version" : "2.0"
    },
    "scene" : 0,
    "scenes" : [
        {
            "name" : "Scene",
            "nodes" : [
                0
            ]
        }
    ],
    "nodes" : [
        {
            "mesh" : 0,
            "name" : "3000 Lateral Buoy",
            "translation" : [
                -0.03120415471494198,
                1.4564428329467773,
                -0.021127082407474518
            ]
        }
    ],
    "materials" : [
        {
            "doubleSided" : true,
            "name" : "Material.001",
            "pbrMetallicRoughness" : {
                "baseColorFactor" : [
                    0.8000000715255737,
                    0.008669509552419186,
                    0.005312706343829632,
                    1
                ],
                "metallicFactor" : 0.6942675113677979,
                "roughnessFactor" : 0.4127388596534729
            }
        }
    ],
    "meshes" : [
        {
            "name" : "Cylinder.029",
            "primitives" : [
                {
                    "attributes" : {
                        "POSITION" : 0,
                        "NORMAL" : 1,
                        "TEXCOORD_0" : 2
                    },
                    "indices" : 3,
                    "material" : 0
                }
            ]
        }
    ],
    "accessors" : [
        {
            "bufferView" : 0,
            "componentType" : 5126,
            "count" : 21883,
            "max" : [
                1.533605933189392,
                4.100429534912109,
                1.5235294103622437
            ],
            "min" : [
                -1.4711979627609253,
                -2.7382774353027344,
                -1.4812753200531006
            ],
            "type" : "VEC3"
        },
        {
            "bufferView" : 1,
            "componentType" : 5126,
            "count" : 21883,
            "type" : "VEC3"
        },
        {
            "bufferView" : 2,
            "componentType" : 5126,
            "count" : 21883,
            "type" : "VEC2"
        },
        {
            "bufferView" : 3,
            "componentType" : 5123,
            "count" : 39042,
            "type" : "SCALAR"
        }
    ],
    "bufferViews" : [
        {
            "buffer" : 0,
            "byteLength" : 262596,
            "byteOffset" : 0
        },
        {
            "buffer" : 0,
            "byteLength" : 262596,
            "byteOffset" : 262596
        },
        {
            "buffer" : 0,
            "byteLength" : 175064,
            "byteOffset" : 525192
        },
        {
            "buffer" : 0,
            "byteLength" : 78084,
            "byteOffset" : 700256
        }
    ],
    "buffers" : [
        {
            "byteLength" : 778340,
            "uri" : "data:application/octet-stream;base64,"
        }
    ]
}
